{"title":"Robin Hood Men in Tights(1993)Mp-4[DaScubaDude]","uid":12642303,"size":1045437264,"categoryP":"video","categoryS":"movies","magnet":"?xt=urn:btih:9cccf45eddc7c9351c0860b2825b5020883ba572&amp;dn=Robin+Hood+Men+in+Tights%281993%29Mp-4%5BDaScubaDude%5D&amp;tr=udp%3A%2F%2Ftracker.leechers-paradise.org%3A6969&amp;tr=udp%3A%2F%2Fzer0day.ch%3A1337&amp;tr=udp%3A%2F%2Fopen.demonii.com%3A1337&amp;tr=udp%3A%2F%2Ftracker.coppersurfer.tk%3A6969&amp;tr=udp%3A%2F%2Fexodus.desync.com%3A6969","seeders":0,"leechers":1,"uploader":"dascuba","files":1,"time":1446009754,"description":"Robin Hood: Men in Tights (1993)\r\nPG-13  |  104 min  |  Adventure, Comedy, Musical  |  28 July 1993 (USA)\r\n6.7 Your rating:   -/10   Ratings: 6.7/10 from 85,093 users   \r\nReviews: 181 user | 45 critic\r\nA spoof of Robin Hood in general and Robin Hood: Prince of Thieves (1991) in particular.\r\n\r\nDirector: Mel Brooks\r\nWriters: J.D. Shapiro (story) (as J. David Shapiro) , Evan Chandler (story), 3 more credits »\r\nStars: Cary Elwes, Richard Lewis, Roger Rees\r\n\r\n General\r\nComplete name                            : C:Robin Hood Men in TightsROBINHOOD_Title1.mp4\r\nFormat                                   : MPEG-4\r\nFormat profile                           : Base Media\r\nCodec ID                                 : isom\r\nFile size                                : 997 MiB\r\nDuration                                 : 1h 44mn\r\nOverall bit rate mode                    : Variable\r\nOverall bit rate                         : 1 337 Kbps\r\nMovie name                               : ROBINHOOD\r\nGenre                                    : Comedy\r\nWriting application                      : Lavf54.6.100\r\n\r\nVideo\r\nID                                       : 1\r\nFormat                                   : AVC\r\nFormat/Info                              : Advanced Video Codec\r\nFormat profile                           :   \r\nFormat settings, CABAC                   : No\r\nFormat settings, ReFrames                : 6 frames\r\nCodec ID                                 : avc1\r\nCodec ID/Info                            : Advanced Video Coding\r\nDuration                                 : 1h 44mn\r\nBit rate                                 : 1 202 Kbps\r\nWidth                                    : 720 pixels\r\nHeight                                   : 404 pixels\r\nDisplay aspect ratio                     : 16:9\r\nFrame rate mode                          : Constant\r\nFrame rate                               : 29.970 fps\r\nColor space                              : YUV\r\nChroma subsampling                       : 4:2:0\r\nBit depth                                : 8 bits\r\nScan type                                : Progressive\r\nBits/(Pixel*Frame)                       : 0.138\r\nStream size                              : 896 MiB (90%)\r\n\r\nAudio\r\nID                                       : 2\r\nFormat                                   : AAC\r\nFormat/Info                              : Advanced Audio Codec\r\nFormat profile                           : LC\r\nCodec ID                                 : 40\r\nDuration                                 : 1h 44mn\r\nBit rate mode                            : Variable\r\nBit rate                                 : 128 Kbps\r\nMaximum bit rate                         : 145 Kbps\r\nChannel(s)                               : 2 channels\r\nChannel positions                        : Front: L R\r\nSampling rate                            : 44.1 KHz\r\nCompression mode                         : Lossy\r\nStream size                              : 95.5 MiB (10%)","torrent":{"xt":"urn:btih:9cccf45eddc7c9351c0860b2825b5020883ba572","amp;dn":"Robin+Hood+Men+in+Tights%281993%29Mp-4%5BDaScubaDude%5D","amp;tr":["udp%3A%2F%2Ftracker.leechers-paradise.org%3A6969","udp%3A%2F%2Fzer0day.ch%3A1337","udp%3A%2F%2Fopen.demonii.com%3A1337","udp%3A%2F%2Ftracker.coppersurfer.tk%3A6969","udp%3A%2F%2Fexodus.desync.com%3A6969"],"infoHash":"9cccf45eddc7c9351c0860b2825b5020883ba572","infoHashBuffer":{"type":"Buffer","data":[156,204,244,94,221,199,201,53,28,8,96,178,130,91,80,32,136,59,165,114]},"announce":[],"urlList":[]}}